<svg width="100" height="100" viewBox="0 0 100 100" fill="none" xmlns="http://www.w3.org/2000/svg">
  <defs>
    <style>
      .outline { stroke: #3E2723; stroke-width: 6px; stroke-linecap: round; stroke-linejoin: round; }
      .shine { fill: white; opacity: 0.5; }
      .toy-outline { stroke: #3E2723; stroke-width: 4px; stroke-linecap: round; stroke-linejoin: round; }
    </style>
  </defs>
  <circle cx="50" cy="50" r="40" fill="#A2DEFF" fill-opacity="0.3" class="outline"/>
  
  <g transform="translate(25, 35) scale(0.8)">
     <path d="M45 15 C 55 15, 60 25, 60 30 C 65 30, 70 32, 70 35 C 70 38, 65 40, 60 40 C 60 50, 50 55, 30 55 C 10 55, 5 45, 5 40 C 5 30, 20 25, 25 25 C 25 15, 35 15, 45 15 Z" fill="#FDCB6E" class="toy-outline"/>
     <circle cx="40" cy="25" r="3" fill="#3E2723"/> <path d="M55 28 L 65 28 L 60 35 Z" fill="#E17055" class="toy-outline"/> </g>

  <ellipse cx="35" cy="35" rx="14" ry="8" transform="rotate(-45 35 35)" class="shine"/>
</svg>